# File units = meters
mtllib End.mtl
g End
v 0.948421 3.9103 -0.9 
v 0.948421 3.9103 -2 
v 0.962563 3.92444 -2 
v 0.962563 3.92444 -0.9 
v 0.403033 4.48397 -2 
v 0.403033 4.48397 -0.9 
v 0.827298 4.90824 -2 
v 0.827298 4.90824 -0.9 
v 1.38683 4.34871 -2 
v 1.38683 4.34871 -0.9 
v 1.40097 4.36285 -2 
v 1.40097 4.36285 -0.9 
v 0.827298 4.93652 -0.9 
v 0.374749 4.48397 -0.9 
v 0.374749 4.48397 -2 
v 0.827298 4.93652 -2 
vn 0.707107 -0.707107 0 
vn 0.707107 0.707107 0 
vn -0.707107 -0.707107 0 
vn 0.707107 -0.707107 0 
vn 0 0 1 
vn 0 0 -1 
vn 0.707107 0.707107 0 
vn -0.707107 0.707107 0 
vn -0.707107 -0.707107 0 
usemtl 0.768627_0.886275_0.952941_0.000000_0.000000
o mesh0
f 1//1 2//1 3//1 
f 3//1 4//1 1//1 
o mesh1
f 4//2 3//2 5//2 
f 5//2 6//2 4//2 
o mesh2
f 6//1 5//1 7//1 
f 7//1 8//1 6//1 
o mesh3
f 8//3 7//3 9//3 
f 9//3 10//3 8//3 
o mesh4
f 10//4 9//4 11//4 
f 11//4 12//4 10//4 
o mesh5
f 13//5 14//5 6//5 
f 1//5 4//5 6//5 
f 12//5 13//5 8//5 
f 6//5 14//5 1//5 
f 6//5 8//5 13//5 
f 8//5 10//5 12//5 
o mesh6
f 2//6 15//6 5//6 
f 16//6 7//6 5//6 
f 5//6 15//6 16//6 
f 11//6 9//6 7//6 
f 7//6 16//6 11//6 
f 5//6 3//6 2//6 
o mesh7
f 12//7 11//7 16//7 
f 16//7 13//7 12//7 
o mesh8
f 13//8 16//8 15//8 
f 15//8 14//8 13//8 
o mesh9
f 14//9 15//9 2//9 
f 2//9 1//9 14//9 
