# File units = meters
mtllib Ramps.mtl
g Ramp 4
v 1.45754 3.42947 -2 
v 0.962563 3.92444 -2 
v 1.38683 4.34871 -2 
v 1.8818 3.85373 -2 
v 1.38683 4.34871 -1 
v 1.8818 3.85373 -0.75 
v 0.962563 3.92444 -1 
v 1.45754 3.42947 -0.75 
vn 0 0 -1 
vn 0.707107 0.707107 0 
vn -0.707107 0.707107 0 
vn 0.707107 -0.707107 0 
vn -0.707107 -0.707107 0 
vn -0.237826 0.237826 0.941742 
usemtl 0.615686_0.811765_0.929412_0.000000_0.000000
o mesh0
f 1//1 2//1 3//1 
f 3//1 4//1 1//1 
o mesh1
f 4//2 3//2 5//2 
f 5//2 6//2 4//2 
o mesh2
f 3//3 2//3 7//3 
f 7//3 5//3 3//3 
o mesh3
f 4//4 6//4 8//4 
f 8//4 1//4 4//4 
o mesh4
f 1//5 8//5 7//5 
f 7//5 2//5 1//5 
o mesh5
f 8//6 6//6 5//6 
f 5//6 7//6 8//6 
g Ramp 1
v -0.813173 1.23744 -0.25 
v -0.813173 1.23744 -2 
v -1.23744 0.813173 -2 
v -1.23744 0.813173 -0.25 
v -0.742462 0.318198 -2 
v -0.742462 0.318198 2.22045e-16 
v -0.318198 0.742462 -2 
v -0.318198 0.742462 0 
vn -0.707107 0.707107 0 
vn -0.707107 -0.707107 0 
vn 0.707107 0.707107 0 
vn 0.707107 -0.707107 0 
vn -0.237826 0.237826 0.941742 
vn 0 0 -1 
usemtl 0.972549_0.529412_0.003922_0.000000_0.000000
o mesh6
f 9//7 10//7 11//7 
f 11//7 12//7 9//7 
o mesh7
f 13//8 14//8 12//8 
f 12//8 11//8 13//8 
o mesh8
f 15//9 10//9 9//9 
f 9//9 16//9 15//9 
o mesh9
f 13//10 15//10 16//10 
f 16//10 14//10 13//10 
o mesh10
f 9//11 12//11 14//11 
f 14//11 16//11 9//11 
o mesh11
f 15//12 13//12 11//12 
f 11//12 10//12 15//12 
g Ramp 2
v -1.23744 2.2981 -2 
v -0.742462 2.79307 -2 
v -0.318198 2.36881 -2 
v -0.813173 1.87383 -2 
v -0.813173 1.87383 -0.25 
v -1.23744 2.2981 -0.25 
v -0.742462 2.79307 -0.5 
v -0.318198 2.36881 -0.5 
vn 0 0 -1 
vn -0.707107 -0.707107 0 
vn 0.707107 0.707107 0 
vn -0.707107 0.707107 0 
vn 0.707107 -0.707107 0 
vn 0.237826 0.237826 0.941742 
usemtl 0.498039_0.498039_0.498039_0.000000_0.000000
o mesh12
f 17//13 18//13 19//13 
f 19//13 20//13 17//13 
o mesh13
f 17//14 20//14 21//14 
f 21//14 22//14 17//14 
o mesh14
f 23//15 24//15 19//15 
f 19//15 18//15 23//15 
o mesh15
f 17//16 22//16 23//16 
f 23//16 18//16 17//16 
o mesh16
f 20//17 19//17 24//17 
f 24//17 21//17 20//17 
o mesh17
f 24//18 23//18 22//18 
f 22//18 21//18 24//18 
g Ramp 3
v 0.75 3.41127 -2 
v 1.45 3.41127 -2 
v 1.45 2.81127 -2 
v 0.75 2.81127 -2 
v 1.45 3.41127 -0.75 
v 1.45 2.81127 -0.75 
v 0.75 3.41127 -0.5 
v 0.75 2.81127 -0.5 
vn 0 0 -1 
vn 1 0 0 
vn 6.34413e-16 1 0 
vn -1 0 0 
vn -6.34413e-16 -1 0 
vn 0.336336 -2.13376e-16 0.941742 
usemtl 0.980392_0.713725_0.003922_0.000000_0.000000
o mesh18
f 25//19 26//19 27//19 
f 27//19 28//19 25//19 
o mesh19
f 26//20 29//20 30//20 
f 30//20 27//20 26//20 
o mesh20
f 25//21 31//21 29//21 
f 29//21 26//21 25//21 
o mesh21
f 31//22 25//22 28//22 
f 28//22 32//22 31//22 
o mesh22
f 28//23 27//23 30//23 
f 30//23 32//23 28//23 
o mesh23
f 31//24 32//24 30//24 
f 30//24 29//24 31//24 
