# File units = meters
mtllib floor.mtl
g Skirting
v -0.937822 -3.5 -0.68 
v -0.937822 -3.5 0 
v -2.56218 -2.56218 0 
v -2.56218 -2.56218 -0.68 
v 0.937822 -3.5 -0.68 
v 0.937822 -3.5 0 
v 2.56218 -2.56218 -0.68 
v 2.56218 -2.56218 0 
v 3.5 -0.937822 -0.68 
v 3.5 -0.937822 0 
v 3.5 0.937822 -0.68 
v 3.5 0.937822 0 
v 2.56218 2.56218 -0.68 
v 2.56218 2.56218 0 
v 0.937822 3.5 -0.68 
v 0.937822 3.5 0 
v -0.937822 3.5 -0.68 
v -0.937822 3.5 0 
v -2.56218 2.56218 -0.68 
v -2.56218 2.56218 0 
v -3.5 -0.937822 -0.68 
v -3.5 0.937822 -0.68 
v -3.5 0.937822 0 
v -3.5 -0.937822 0 
v 0.240244 0.58 0 
v 0.58 0.240244 0 
v -0.240244 0.58 0 
v -0.58 0.240244 0 
v 0.58 -0.240244 0 
v -0.58 -0.240244 0 
v -0.240244 -0.58 0 
v 0.240244 -0.58 0 
v -0.240244 -0.58 -0.48 
v 0.240244 -0.58 -0.48 
v -0.240244 0.58 -0.48 
v 0.58 -0.240244 -0.48 
v 0.58 0.240244 -0.48 
v -0.58 0.240244 -0.48 
v -0.58 -0.240244 -0.48 
v 0.240244 0.58 -0.48 
vn -0.5 -0.866025 0 
vn 0 -1 0 
vn 0.5 -0.866025 0 
vn 0.866025 -0.5 0 
vn 1 0 0 
vn 0.866025 0.5 0 
vn 0.5 0.866025 0 
vn 2.36766e-16 1 0 
vn -0.5 0.866025 0 
vn 0 0 -1 
vn -0.866025 0.5 0 
vn -1 2.36766e-16 0 
vn -0.866025 -0.5 0 
vn 0 0 1 
vn 0 1 0 
vn -0.707107 0.707107 0 
vn -1 2.31062e-16 0 
vn -0.707107 -0.707107 0 
vn -2.31062e-16 -1 0 
vn 0.707107 -0.707107 0 
vn 1 -2.31062e-16 0 
vn 0.707107 0.707107 0 
usemtl 0.615686_0.811765_0.929412_0.000000_0.000000
o mesh0
f 1//1 2//1 3//1 
f 3//1 4//1 1//1 
o mesh1
f 5//2 6//2 2//2 
f 2//2 1//2 5//2 
o mesh2
f 7//3 8//3 6//3 
f 6//3 5//3 7//3 
o mesh3
f 9//4 10//4 8//4 
f 8//4 7//4 9//4 
o mesh4
f 11//5 12//5 10//5 
f 10//5 9//5 11//5 
o mesh5
f 13//6 14//6 12//6 
f 12//6 11//6 13//6 
o mesh6
f 15//7 16//7 14//7 
f 14//7 13//7 15//7 
o mesh7
f 17//8 18//8 16//8 
f 16//8 15//8 17//8 
o mesh8
f 19//9 20//9 18//9 
f 18//9 17//9 19//9 
o mesh9
f 17//10 5//10 1//10 
f 17//10 13//10 11//10 
f 21//10 22//10 19//10 
f 1//10 4//10 17//10 
f 17//10 9//10 7//10 
f 17//10 15//10 13//10 
f 4//10 21//10 17//10 
f 11//10 9//10 17//10 
f 7//10 5//10 17//10 
f 19//10 17//10 21//10 
o mesh10
f 22//11 23//11 20//11 
f 20//11 19//11 22//11 
o mesh11
f 21//12 24//12 23//12 
f 23//12 22//12 21//12 
o mesh12
f 4//13 3//13 24//13 
f 24//13 21//13 4//13 
o mesh13
f 14//14 25//14 26//14 
f 26//14 12//14 14//14 
f 18//14 27//14 25//14 
f 20//14 28//14 27//14 
f 25//14 16//14 18//14 
f 27//14 18//14 20//14 
f 8//14 10//14 29//14 
f 20//14 23//14 28//14 
f 24//14 30//14 28//14 
f 3//14 31//14 30//14 
f 2//14 6//14 32//14 
f 32//14 6//14 8//14 
f 28//14 23//14 24//14 
f 30//14 24//14 3//14 
f 29//14 32//14 8//14 
f 12//14 26//14 29//14 
f 3//14 2//14 31//14 
f 29//14 10//14 12//14 
f 32//14 31//14 2//14 
f 14//14 16//14 25//14 
o mesh14
f 33//15 31//15 32//15 
f 32//15 34//15 33//15 
o mesh15
f 35//14 36//14 37//14 
f 34//14 38//14 39//14 
f 35//14 34//14 36//14 
f 34//14 35//14 38//14 
f 39//14 33//14 34//14 
f 37//14 40//14 35//14 
o mesh16
f 34//16 32//16 29//16 
f 29//16 36//16 34//16 
o mesh17
f 36//17 29//17 26//17 
f 26//17 37//17 36//17 
o mesh18
f 37//18 26//18 25//18 
f 25//18 40//18 37//18 
o mesh19
f 40//19 25//19 27//19 
f 27//19 35//19 40//19 
o mesh20
f 35//20 27//20 28//20 
f 28//20 38//20 35//20 
o mesh21
f 38//21 28//21 30//21 
f 30//21 39//21 38//21 
o mesh22
f 39//22 30//22 31//22 
f 31//22 33//22 39//22 
