# File units = meters
mtllib rails.mtl
g Rails
v -1 -10.0736 0.199525 
v -0.95 -10.0736 0.199525 
v -0.95 -2.93954 0.075 
v -1 -2.93954 0.075 
v -0.95 0.175 0.075 
v -1 0.175 0.075 
v -0.95 0.175 -0.35 
v -1 0.175 -0.35 
v -0.95 -0.075 -0.35 
v -1 -0.075 -0.35 
v -1 -5.07489 0.042262 
v -1 -0.075 -0.0450114 
v -1 -10.0748 0.129535 
v -0.95 -0.075 -0.0450114 
v -0.95 -10.0748 0.129535 
v -0.95 -0.075 0.0249992 
v -0.95 -0.0950842 0.0253498 
v -0.95 -0.0963059 -0.0446395 
v -0.05 -0.0963059 -0.0446395 
v -0.05 -0.0950842 0.0253498 
v -0.05 -0.075 0.0249992 
v -0.05 -0.075 -0.0450114 
v -0.05 -10.0748 0.129535 
v 0 -5.07489 0.042262 
v 0 -0.075 -0.0450114 
v 0 -10.0748 0.129535 
v 0 -0.075 -0.35 
v -0.05 -0.075 -0.35 
v -0.05 0.175 -0.35 
v 0 0.175 -0.35 
v -0.05 0.175 0.075 
v 0 0.175 0.075 
v -0.05 -10.0736 0.199525 
v -0.05 -2.93954 0.075 
v 0 -10.0736 0.199525 
v 0 -2.93954 0.075 
vn 0 0.0174524 0.999848 
vn 0 0 1 
vn 0 1 0 
vn 0 0 -1 
vn -1 0 0 
vn 0 -1 0 
vn 0 -0.999848 0.0174524 
vn 1 0 0 
vn 0 1 -3.08317e-16 
vn 0 0.0174524 0.999848 
vn 0 -0.0174524 -0.999848 
vn 0 -1 0 
vn 0 0 -1 
vn 0 1 0 
vn -1 0 0 
vn 1 0 0 
vn 0 0.0174524 0.999848 
vn 0 0 1 
vn 0 -0.999848 0.0174524 
usemtl 0.917647_0.917647_0.917647_0.000000_0.000000
o mesh0
f 1//1 2//1 3//1 
f 3//1 4//1 1//1 
o mesh1
f 5//2 6//2 4//2 
f 4//2 3//2 5//2 
o mesh2
f 7//3 8//3 6//3 
f 6//3 5//3 7//3 
o mesh3
f 9//4 10//4 8//4 
f 8//4 7//4 9//4 
o mesh4
f 1//5 4//5 11//5 
f 4//5 12//5 11//5 
f 11//5 13//5 1//5 
f 8//5 10//5 12//5 
f 12//5 6//5 8//5 
f 4//5 6//5 12//5 
o mesh5
f 9//6 14//6 12//6 
f 12//6 10//6 9//6 
o mesh6
f 13//7 15//7 2//7 
f 2//7 1//7 13//7 
o mesh7
f 7//8 5//8 14//8 
f 5//8 16//8 14//8 
f 5//8 3//8 17//8 
f 15//8 18//8 3//8 
f 17//8 16//8 5//8 
f 18//8 17//8 3//8 
f 3//8 2//8 15//8 
f 14//8 9//8 7//8 
o mesh8
f 17//7 18//7 19//7 
f 19//7 20//7 17//7 
o mesh9
f 16//9 21//9 22//9 
f 22//9 14//9 16//9 
o mesh10
f 16//10 17//10 20//10 
f 20//10 21//10 16//10 
o mesh11
f 14//11 22//11 19//11 
f 15//11 13//11 11//11 
f 19//11 18//11 14//11 
f 11//11 18//11 15//11 
f 18//11 12//11 14//11 
f 23//11 19//11 24//11 
f 22//11 25//11 19//11 
f 19//11 25//11 24//11 
f 24//11 26//11 23//11 
f 11//11 12//11 18//11 
o mesh12
f 27//12 25//12 22//12 
f 22//12 28//12 27//12 
o mesh13
f 29//13 30//13 27//13 
f 27//13 28//13 29//13 
o mesh14
f 31//14 32//14 30//14 
f 30//14 29//14 31//14 
o mesh15
f 29//15 28//15 22//15 
f 23//15 33//15 34//15 
f 31//15 21//15 20//15 
f 22//15 31//15 29//15 
f 34//15 19//15 23//15 
f 22//15 21//15 31//15 
f 20//15 34//15 31//15 
f 34//15 20//15 19//15 
o mesh16
f 35//16 26//16 24//16 
f 24//16 36//16 35//16 
f 30//16 32//16 25//16 
f 25//16 32//16 36//16 
f 24//16 25//16 36//16 
f 25//16 27//16 30//16 
o mesh17
f 35//17 36//17 34//17 
f 34//17 33//17 35//17 
o mesh18
f 34//18 36//18 32//18 
f 32//18 31//18 34//18 
o mesh19
f 23//19 26//19 35//19 
f 35//19 33//19 23//19 
