# File units = meters
mtllib wall.mtl
g Wall
v -0.95 -9.96826 0.502733 
v -0.95 -10.0682 0.504478 
v -0.35 -10.0682 0.504478 
v -0.35 -9.96826 0.502733 
v -0.95 -10.0735 0.204524 
v -0.35 -10.0735 0.204524 
v -0.95 -9.97349 0.202779 
v -0.35 -9.97349 0.202779 
vn 0 0.0174524 0.999848 
vn 0 -0.999848 0.0174524 
vn 0 -0.0174524 -0.999848 
vn 0 0.999848 -0.0174524 
vn -1 0 0 
vn 1 -3.22934e-18 -1.85009e-16 
usemtl 0.231373_0.380392_0.705882_0.000000_0.000000
o mesh0
f 1//1 2//1 3//1 
f 3//1 4//1 1//1 
o mesh1
f 3//2 2//2 5//2 
f 5//2 6//2 3//2 
o mesh2
f 7//3 8//3 6//3 
f 6//3 5//3 7//3 
o mesh3
f 1//4 4//4 8//4 
f 8//4 7//4 1//4 
o mesh4
f 1//5 7//5 5//5 
f 5//5 2//5 1//5 
o mesh5
f 4//6 3//6 6//6 
f 6//6 8//6 4//6 
