# File units = meters
mtllib Markers.mtl
g Marker 2
v 1.08894 4.34164 -0.2 
v 1.08894 4.34164 -0.4 
v 1.06066 4.31335 -0.4 
v 1.06066 4.31335 -0.2 
v 1.20208 4.17193 -0.4 
v 1.20208 4.17193 -0.2 
v 1.23037 4.20021 -0.4 
v 1.23037 4.20021 -0.2 
vn -0.707107 0.707107 0 
vn -0.707107 -0.707107 0 
vn 0.707107 -0.707107 0 
vn 0.707107 0.707107 0 
vn 0 0 1 
vn 0 0 -1 
usemtl 0.647059_0.647059_0.647059_0.000000_0.000000
o mesh0
f 1//1 2//1 3//1 
f 3//1 4//1 1//1 
o mesh1
f 4//2 3//2 5//2 
f 5//2 6//2 4//2 
o mesh2
f 6//3 5//3 7//3 
f 7//3 8//3 6//3 
o mesh3
f 8//4 7//4 2//4 
f 2//4 1//4 8//4 
o mesh4
f 6//5 8//5 1//5 
f 1//5 4//5 6//5 
o mesh5
f 5//6 3//6 2//6 
f 2//6 7//6 5//6 
g Marker 4
v -0.10197 5.27182 -0.7 
v -0.10197 5.27182 -0.9 
v 0.0394517 5.41324 -0.9 
v 0.0394517 5.41324 -0.7 
v 0.0111675 5.44152 -0.9 
v 0.0111675 5.44152 -0.7 
v -0.130254 5.3001 -0.9 
v -0.130254 5.3001 -0.7 
vn 0.707107 -0.707107 0 
vn 0.707107 0.707107 0 
vn -0.707107 0.707107 0 
vn -0.707107 -0.707107 0 
vn 0 0 1 
vn 0 0 -1 
usemtl 0.972549_0.529412_0.003922_0.000000_0.000000
o mesh6
f 9//7 10//7 11//7 
f 11//7 12//7 9//7 
o mesh7
f 12//8 11//8 13//8 
f 13//8 14//8 12//8 
o mesh8
f 14//9 13//9 15//9 
f 15//9 16//9 14//9 
o mesh9
f 16//10 15//10 10//10 
f 10//10 9//10 16//10 
o mesh10
f 9//11 12//11 14//11 
f 14//11 16//11 9//11 
o mesh11
f 10//12 15//12 13//12 
f 13//12 11//12 10//12 
g Marker 1
v -2.786 2.64458 0.05 
v -2.786 2.64458 -0.15 
v -2.75772 2.6163 -0.15 
v -2.75772 2.6163 0.05 
v -2.6163 2.75772 -0.15 
v -2.6163 2.75772 0.05 
v -2.64458 2.786 -0.15 
v -2.64458 2.786 0.05 
vn -0.707107 -0.707107 0 
vn 0.707107 -0.707107 0 
vn 0.707107 0.707107 0 
vn -0.707107 0.707107 0 
vn 0 0 1 
vn 0 0 -1 
usemtl 0.647059_0.647059_0.647059_0.000000_0.000000
o mesh12
f 17//13 18//13 19//13 
f 19//13 20//13 17//13 
o mesh13
f 20//14 19//14 21//14 
f 21//14 22//14 20//14 
o mesh14
f 22//15 21//15 23//15 
f 23//15 24//15 22//15 
o mesh15
f 24//16 23//16 18//16 
f 18//16 17//16 24//16 
o mesh16
f 20//17 22//17 24//17 
f 24//17 17//17 20//17 
o mesh17
f 19//18 18//18 23//18 
f 23//18 21//18 19//18 
g Marker 3
v 3.84 3.21127 -0.45 
v 3.84 3.21127 -0.65 
v 3.8 3.21127 -0.65 
v 3.8 3.21127 -0.45 
v 3.8 3.01127 -0.65 
v 3.8 3.01127 -0.45 
v 3.84 3.01127 -0.65 
v 3.84 3.01127 -0.45 
vn 0 1 0 
vn -1 0 0 
vn 0 -1 0 
vn 1 0 0 
vn 0 0 1 
vn 0 0 -1 
o mesh18
f 25//19 26//19 27//19 
f 27//19 28//19 25//19 
o mesh19
f 28//20 27//20 29//20 
f 29//20 30//20 28//20 
o mesh20
f 30//21 29//21 31//21 
f 31//21 32//21 30//21 
o mesh21
f 32//22 31//22 26//22 
f 26//22 25//22 32//22 
o mesh22
f 32//23 25//23 28//23 
f 28//23 30//23 32//23 
o mesh23
f 29//24 27//24 26//24 
f 26//24 31//24 29//24 
