# File units = meters
mtllib sliding-floor.mtl
g SlidingFloor
v -1.45 -0.169997 0.030349 
v -0.05 -0.169997 0.030349 
v -0.05 -0.171306 -0.0446395 
v -1.45 -0.171306 -0.0446395 
v -1.45 -4.14939 0.0998096 
v -0.05 -4.14939 0.0998096 
v -1.45 -4.1507 0.024821 
v -0.05 -4.1507 0.024821 
vn 0 0.999848 -0.0174524 
vn 0 0.0174524 0.999848 
vn 0 -0.999848 0.0174524 
vn 0 -0.0174524 -0.999848 
vn -1 0 0 
vn 1 0 0 
usemtl 0.647059_0.647059_0.647059_0.000000_0.000000
o mesh0
f 1//1 2//1 3//1 
f 3//1 4//1 1//1 
o mesh1
f 5//2 6//2 2//2 
f 2//2 1//2 5//2 
o mesh2
f 7//3 8//3 6//3 
f 6//3 5//3 7//3 
o mesh3
f 4//4 3//4 8//4 
f 8//4 7//4 4//4 
o mesh4
f 4//5 7//5 5//5 
f 5//5 1//5 4//5 
o mesh5
f 3//6 2//6 6//6 
f 6//6 8//6 3//6 
