# File units = meters
mtllib ramp.mtl
g Ramp
v 0.75 4.04795 2.54484 
v -0.75 4.04795 2.54484 
v -0.75 3.61454 2.88345 
v 0.75 3.61454 2.88345 
v -0.75 1.2676 5.68042 
v 0.75 1.2676 5.68042 
v -0.75 0.967604 5.82031 
v 0.75 0.967604 5.82031 
v 0.75 4.49734 2.32565 
v -0.75 4.49734 2.32565 
v 0.75 4.88546 2.22888 
v -0.75 4.88546 2.22888 
v 0.75 5.38516 2.21143 
v -0.75 5.38516 2.21143 
v 0.75 5.9268 2.30694 
v -0.75 5.9268 2.30694 
v 0.75 6.18311 -0.179689 
v 0.75 0.0176045 -0.179689 
v 0.75 6.18311 2.4105 
v 0.75 0.0176045 5.82031 
v 0.45 6.48311 -0.179689 
v 0.45 6.48311 2.5317 
v -0.75 6.18311 2.4105 
v -0.45 6.48311 2.5317 
v -0.45 6.48311 -0.179689 
v -0.75 6.18311 -0.179689 
v -0.75 0.0176045 -0.179689 
v -0.75 0.0176045 5.82031 
v 0.45 -0.282396 -0.179689 
v -0.45 -0.282396 -0.179689 
v 0.45 -0.282396 5.82031 
v -0.45 -0.282396 5.82031 
vn 0 0.615661 0.788011 
vn 0 0.766044 0.642788 
vn 0 0.422618 0.906308 
vn 0 0.438371 0.898794 
vn 0 0.241922 0.970296 
vn 0 0.0348995 0.999391 
vn 0 -0.173648 0.984808 
vn 1 0 0 
vn 0.707107 0.707107 0 
vn 0 -0.374607 0.927184 
vn 0 1 0 
vn -0.707107 0.707107 0 
vn -1 0 0 
vn 0 0 -1 
vn 0 0 1 
vn 0 -1 -1.29526e-16 
vn 0.707107 -0.707107 -9.15887e-17 
vn -0.707107 -0.707107 -9.15887e-17 
usemtl 0.976471_0.960784_0.960784_0.000000_0.000000
o mesh0
f 1//1 2//1 3//1 
f 3//1 4//1 1//1 
o mesh1
f 4//2 3//2 5//2 
f 5//2 6//2 4//2 
o mesh2
f 6//3 5//3 7//3 
f 7//3 8//3 6//3 
o mesh3
f 9//4 10//4 2//4 
f 2//4 1//4 9//4 
o mesh4
f 11//5 12//5 10//5 
f 10//5 9//5 11//5 
o mesh5
f 13//6 14//6 12//6 
f 12//6 11//6 13//6 
o mesh6
f 15//7 16//7 14//7 
f 14//7 13//7 15//7 
o mesh7
f 17//8 11//8 9//8 
f 18//8 4//8 6//8 
f 9//8 18//8 17//8 
f 6//8 8//8 18//8 
f 17//8 13//8 11//8 
f 17//8 19//8 15//8 
f 18//8 1//8 4//8 
f 15//8 13//8 17//8 
f 9//8 1//8 18//8 
f 8//8 20//8 18//8 
o mesh8
f 21//9 22//9 19//9 
f 19//9 17//9 21//9 
o mesh9
f 23//10 19//10 22//10 
f 23//10 15//10 19//10 
f 22//10 24//10 23//10 
f 23//10 16//10 15//10 
o mesh10
f 25//11 24//11 22//11 
f 22//11 21//11 25//11 
o mesh11
f 25//12 26//12 23//12 
f 23//12 24//12 25//12 
o mesh12
f 26//13 27//13 10//13 
f 27//13 2//13 10//13 
f 27//13 7//13 5//13 
f 26//13 14//13 16//13 
f 10//13 12//13 26//13 
f 27//13 28//13 7//13 
f 12//13 14//13 26//13 
f 5//13 3//13 27//13 
f 3//13 2//13 27//13 
f 16//13 23//13 26//13 
o mesh13
f 21//14 29//14 30//14 
f 29//14 21//14 17//14 
f 17//14 18//14 29//14 
f 27//14 26//14 25//14 
f 25//14 21//14 27//14 
f 30//14 27//14 21//14 
o mesh14
f 7//15 31//15 20//15 
f 7//15 28//15 32//15 
f 32//15 31//15 7//15 
f 20//15 8//15 7//15 
o mesh15
f 32//16 30//16 29//16 
f 29//16 31//16 32//16 
o mesh16
f 20//17 31//17 29//17 
f 29//17 18//17 20//17 
o mesh17
f 30//18 32//18 28//18 
f 28//18 27//18 30//18 
