# File units = meters
mtllib floor.mtl
g Floor
v 1 0 0.025 
v 1 0 0 
v 1 2.5 0 
v 1 2.5 0.025 
v -0.25 2.5 0 
v -0.25 2.5 0.025 
v -0.25 2.55 0 
v -0.25 2.55 0.025 
v 0 2.55 0 
v 0 2.55 0.025 
v 0 2.7 0 
v 0 2.7 0.025 
v -1 0 0.025 
v -1 0 0 
v -1 1.5 0.025 
v -1 1.5 0 
v 0.125 1.5 0.025 
v 0.125 1.5 0 
v 0.125 1.55 0.025 
v 0.125 1.55 0 
v -0.05 1.55 0.025 
v -0.05 1.55 0 
v -0.45 1.95 0.025 
v -0.45 1.95 0 
v -1 1.95 0.025 
v -1 1.95 0 
v -1 3.5 0.025 
v -1 3.5 0 
v 0.3 3.5 0.025 
v 0.3 3.5 0 
v 0.3 3.55 0.025 
v 0.3 3.55 0 
v 0 3.55 0.025 
v 0 3.55 0 
v -1.11022e-16 3.95 0.025 
v -1.11022e-16 3.95 0 
v -1 3.95 0.025 
v -1 3.95 0 
v -1 4.5 0.025 
v -1 4.5 0 
v 0.3625 4.5 0.025 
v 0.3625 4.5 0 
v 0.3625 4.55 0.025 
v 0.3625 4.55 0 
v 0 4.55 0.025 
v 0 4.55 0 
v -1.11022e-16 4.95 0.025 
v -1.11022e-16 4.95 0 
v -1 4.95 0.025 
v -1 4.95 0 
v -1 6.23077 0.025 
v -1 6.23077 0 
v 1 6.23077 0.025 
v 1 6.23077 0 
v 0.25 2.95 0.025 
v 1 2.95 0.025 
v 0.25 2.95 0 
v 1 2.95 0 
vn 1 2.22045e-16 0 
vn 0 1 0 
vn 0 -1 0 
vn 1 0 0 
vn -1 -1.4803e-16 0 
vn 0 1 0 
vn 0 -1 0 
vn -0.707107 -0.707107 0 
vn -1 0 0 
vn 0 1 0 
vn 0 -1 0 
vn -1 0 0 
vn 0 1 0 
vn 0 -1 0 
vn -1 0 0 
vn 0 1 0 
vn 0 0 1 
vn 0 0 -1 
vn 0 -1 0 
vn 1 1.73368e-16 0 
vn 0.707107 -0.707107 0 
usemtl 0.615686_0.811765_0.929412_0.000000_0.000000
o mesh0
f 1//1 2//1 3//1 
f 3//1 4//1 1//1 
o mesh1
f 4//2 3//2 5//2 
f 5//2 6//2 4//2 
o mesh2
f 6//1 5//1 7//1 
f 7//1 8//1 6//1 
o mesh3
f 8//3 7//3 9//3 
f 9//3 10//3 8//3 
o mesh4
f 10//4 9//4 11//4 
f 11//4 12//4 10//4 
o mesh5
f 13//3 14//3 2//3 
f 2//3 1//3 13//3 
o mesh6
f 15//5 16//5 14//5 
f 14//5 13//5 15//5 
o mesh7
f 17//6 18//6 16//6 
f 16//6 15//6 17//6 
o mesh8
f 19//5 20//5 18//5 
f 18//5 17//5 19//5 
o mesh9
f 21//7 22//7 20//7 
f 20//7 19//7 21//7 
o mesh10
f 22//8 21//8 23//8 
f 23//8 24//8 22//8 
o mesh11
f 25//7 26//7 24//7 
f 24//7 23//7 25//7 
o mesh12
f 27//9 28//9 26//9 
f 26//9 25//9 27//9 
o mesh13
f 29//10 30//10 28//10 
f 28//10 27//10 29//10 
o mesh14
f 31//9 32//9 30//9 
f 30//9 29//9 31//9 
o mesh15
f 33//11 34//11 32//11 
f 32//11 31//11 33//11 
o mesh16
f 35//12 36//12 34//12 
f 34//12 33//12 35//12 
o mesh17
f 37//11 38//11 36//11 
f 36//11 35//11 37//11 
o mesh18
f 39//12 40//12 38//12 
f 38//12 37//12 39//12 
o mesh19
f 41//13 42//13 40//13 
f 40//13 39//13 41//13 
o mesh20
f 43//12 44//12 42//12 
f 42//12 41//12 43//12 
o mesh21
f 45//14 46//14 44//14 
f 44//14 43//14 45//14 
o mesh22
f 47//15 48//15 46//15 
f 46//15 45//15 47//15 
o mesh23
f 49//14 50//14 48//14 
f 48//14 47//14 49//14 
o mesh24
f 51//15 52//15 50//15 
f 50//15 49//15 51//15 
o mesh25
f 53//16 54//16 52//16 
f 52//16 51//16 53//16 
o mesh26
f 27//17 12//17 55//17 
f 55//17 29//17 27//17 
f 8//17 10//17 12//17 
f 12//17 27//17 8//17 
f 56//17 41//17 31//17 
f 31//17 29//17 56//17 
f 31//17 41//17 35//17 
f 35//17 33//17 31//17 
f 39//17 37//17 35//17 
f 35//17 41//17 39//17 
f 56//17 53//17 43//17 
f 43//17 41//17 56//17 
f 43//17 53//17 47//17 
f 25//17 23//17 6//17 
f 47//17 45//17 43//17 
f 51//17 49//17 47//17 
f 6//17 27//17 25//17 
f 13//17 1//17 17//17 
f 4//17 19//17 17//17 
f 47//17 53//17 51//17 
f 6//17 8//17 27//17 
f 17//17 1//17 4//17 
f 6//17 21//17 19//17 
f 23//17 21//17 6//17 
f 19//17 4//17 6//17 
f 17//17 15//17 13//17 
f 55//17 56//17 29//17 
o mesh27
f 52//18 54//18 48//18 
f 44//18 46//18 48//18 
f 54//18 32//18 42//18 
f 32//18 34//18 36//18 
f 3//18 22//18 24//18 
f 48//18 54//18 44//18 
f 36//18 42//18 32//18 
f 3//18 20//18 22//18 
f 7//18 28//18 11//18 
f 28//18 30//18 57//18 
f 40//18 42//18 36//18 
f 42//18 44//18 54//18 
f 24//18 5//18 3//18 
f 26//18 28//18 7//18 
f 57//18 11//18 28//18 
f 48//18 50//18 52//18 
f 58//18 30//18 32//18 
f 7//18 5//18 26//18 
f 30//18 58//18 57//18 
f 32//18 54//18 58//18 
f 11//18 9//18 7//18 
f 24//18 26//18 5//18 
f 3//18 2//18 18//18 
f 18//18 20//18 3//18 
f 14//18 16//18 18//18 
f 18//18 2//18 14//18 
f 36//18 38//18 40//18 
o mesh28
f 58//19 56//19 55//19 
f 55//19 57//19 58//19 
o mesh29
f 56//20 58//20 54//20 
f 54//20 53//20 56//20 
o mesh30
f 57//21 55//21 12//21 
f 12//21 11//21 57//21 
