# File units = meters
mtllib V2_medium_inner_wall.mtl
g Medium Inner Wall
v -2.99669 4.26151 0.125 
v -2.99669 4.26151 0 
v -3.06368 4.78228 -1.38778e-17 
v -3.06368 4.78228 0.125 
v -2.77712 4.34231 -1.38778e-17 
v -2.77712 4.34231 0.125 
v -2.9949 4.25115 0 
v -2.9922 4.241 0 
v -2.9949 4.25115 0.125 
v -2.98863 4.23112 0 
v -2.9922 4.241 0.125 
v -2.98421 4.22159 0 
v -2.98863 4.23112 0.125 
v -2.97897 4.21248 0 
v -2.98421 4.22159 0.125 
v -2.97295 4.20387 0 
v -2.97897 4.21248 0.125 
v -2.96621 4.19581 0 
v -2.97295 4.20387 0.125 
v -2.95878 4.18838 0 
v -2.96621 4.19581 0.125 
v -2.95073 4.18162 0 
v -2.95878 4.18838 0.125 
v -2.94213 4.1756 0 
v -2.95073 4.18162 0.125 
v -2.93303 4.17035 0 
v -2.94213 4.1756 0.125 
v -2.9235 4.16591 0 
v -2.93303 4.17035 0.125 
v -2.91362 4.16233 0 
v -2.9235 4.16591 0.125 
v -2.90347 4.15962 0 
v -2.91362 4.16233 0.125 
v -2.89312 4.15781 0 
v -2.90347 4.15962 0.125 
v -2.88265 4.15692 0 
v -2.89312 4.15781 0.125 
v -2.87215 4.15694 0 
v -2.88265 4.15692 0.125 
v -2.86168 4.15789 0 
v -2.87215 4.15694 0.125 
v -2.85134 4.15974 0 
v -2.86168 4.15789 0.125 
v -2.8412 4.16249 0 
v -2.85134 4.15974 0.125 
v -2.83134 4.16612 0 
v -2.8412 4.16249 0.125 
v -2.82183 4.1706 0 
v -2.83134 4.16612 0.125 
v -2.81276 4.17589 0 
v -2.82183 4.1706 0.125 
v -2.80418 4.18196 0 
v -2.81276 4.17589 0.125 
v -2.79616 4.18875 0 
v -2.80418 4.18196 0.125 
v -2.78877 4.19621 0 
v -2.79616 4.18875 0.125 
v -2.78206 4.2043 0 
v -2.78877 4.19621 0.125 
v -2.77608 4.21294 0 
v -2.78206 4.2043 0.125 
v -2.77089 4.22207 0 
v -2.77608 4.21294 0.125 
v -2.76651 4.23162 0 
v -2.77089 4.22207 0.125 
v -2.76298 4.24152 0 
v -2.76651 4.23162 0.125 
v -2.76033 4.25169 0 
v -2.76298 4.24152 0.125 
v -2.75858 4.26205 0 
v -2.76033 4.25169 0.125 
v -2.75775 4.27252 0 
v -2.75858 4.26205 0.125 
v -2.75783 4.28303 0 
v -2.75775 4.27252 0.125 
v -2.75884 4.29349 0 
v -2.75783 4.28303 0.125 
v -2.76075 4.30382 0 
v -2.75884 4.29349 0.125 
v -2.76356 4.31394 0 
v -2.76075 4.30382 0.125 
v -2.76724 4.32378 0 
v -2.76356 4.31394 0.125 
v -2.77178 4.33326 0 
v -2.76724 4.32378 0.125 
v -2.77178 4.33326 0.125 
v -3.02645 4.25768 0.125 
v -3.02445 4.24588 0.125 
v -3.02151 4.23428 0.125 
v -2.73839 4.22114 0.125 
v -2.73439 4.23242 0.125 
v -2.73131 4.24398 0.125 
v -2.72916 4.25575 0.125 
v -2.72795 4.26766 0.125 
v -3.01767 4.22295 0.125 
v -3.01293 4.21196 0.125 
v -3.00733 4.20138 0.125 
v -3.0009 4.19129 0.125 
v -2.99369 4.18174 0.125 
v -2.96784 4.15694 0.125 
v -2.95799 4.15013 0.125 
v -2.94764 4.14413 0.125 
v -2.799 4.1491 0.125 
v -2.78907 4.15578 0.125 
v -2.74901 4.19971 0.125 
v -2.74327 4.21021 0.125 
v -2.98574 4.17279 0.125 
v -2.97711 4.16451 0.125 
v -2.93684 4.13898 0.125 
v -2.7797 4.16323 0.125 
v -2.77096 4.1714 0.125 
v -2.7629 4.18024 0.125 
v -2.75556 4.1897 0.125 
v -2.7284 4.29157 0.125 
v -2.73264 4.3151 0.125 
v -2.73615 4.32654 0.125 
v -2.74057 4.33766 0.125 
v -2.91418 4.13133 0.125 
v -2.90247 4.12888 0.125 
v -2.7277 4.27962 0.125 
v -2.73005 4.30342 0.125 
v -2.74585 4.3484 0.125 
v -2.92566 4.1347 0.125 
v -2.8906 4.12737 0.125 
v -2.87864 4.12682 0.125 
v -2.86668 4.12722 0.125 
v -2.85479 4.12857 0.125 
v -2.84305 4.13087 0.125 
v -2.83153 4.13409 0.125 
v -2.82029 4.13822 0.125 
v -2.80943 4.14324 0.125 
v -2.75198 4.35868 0.125 
v -3.11018 4.90865 0.125 
v -2.75198 4.35868 0 
v -2.74585 4.3484 0 
v -2.7277 4.27962 0 
v -2.72795 4.26766 0 
v -2.72916 4.25575 0 
v -2.74057 4.33766 0 
v -2.73615 4.32654 0 
v -2.73264 4.3151 0 
v -2.73131 4.24398 0 
v -2.73439 4.23242 0 
v -2.73839 4.22114 0 
v -2.97711 4.16451 0 
v -2.98574 4.17279 0 
v -3.0009 4.19129 0 
v -2.73005 4.30342 0 
v -2.7284 4.29157 0 
v -2.74327 4.21021 0 
v -2.74901 4.19971 0 
v -2.75556 4.1897 0 
v -2.77096 4.1714 0 
v -2.7797 4.16323 0 
v -2.78907 4.15578 0 
v -2.799 4.1491 0 
v -2.80943 4.14324 0 
v -2.96784 4.15694 0 
v -2.99369 4.18174 0 
v -2.7629 4.18024 0 
v -2.93684 4.13898 0 
v -2.94764 4.14413 0 
v -2.95799 4.15013 0 
v -3.00733 4.20138 0 
v -2.82029 4.13822 0 
v -2.83153 4.13409 0 
v -2.84305 4.13087 0 
v -2.85479 4.12857 0 
v -2.8906 4.12737 0 
v -3.01293 4.21196 0 
v -3.01767 4.22295 0 
v -3.02151 4.23428 0 
v -3.02445 4.24588 0 
v -3.02645 4.25768 0 
v -3.11018 4.90865 0 
v -2.87864 4.12682 0 
v -2.90247 4.12888 0 
v -2.91418 4.13133 0 
v -2.92566 4.1347 0 
v -2.86668 4.12722 0 
vn 0.991828 0.127579 0 
vn -0.837941 -0.545761 0 
vn 0.976867 0.213848 0 
vn 0.991828 0.127579 0 
vn 0.954417 0.298477 0 
vn 0.976867 0.213848 0 
vn 0.92465 0.380818 0 
vn 0.954417 0.298477 0 
vn 0.887794 0.46024 0 
vn 0.92465 0.380818 0 
vn 0.844133 0.536134 0 
vn 0.887794 0.46024 0 
vn 0.794001 0.607917 0 
vn 0.844133 0.536134 0 
vn 0.737781 0.67504 0 
vn 0.794001 0.607917 0 
vn 0.675906 0.736988 0 
vn 0.737781 0.67504 0 
vn 0.608849 0.793286 0 
vn 0.675906 0.736988 0 
vn 0.537124 0.843503 0 
vn 0.608849 0.793286 0 
vn 0.461282 0.887254 0 
vn 0.537124 0.843503 0 
vn 0.381904 0.924202 0 
vn 0.461282 0.887254 0 
vn 0.299598 0.954066 0 
vn 0.381904 0.924202 0 
vn 0.214995 0.976615 0 
vn 0.299598 0.954066 0 
vn 0.128744 0.991678 0 
vn 0.214995 0.976615 0 
vn 0.0415056 0.999138 0 
vn 0.128744 0.991678 0 
vn -0.0460507 0.998939 0 
vn 0.0415056 0.999138 0 
vn -0.133254 0.991082 0 
vn -0.0460507 0.998939 0 
vn -0.219435 0.975627 0 
vn -0.133254 0.991082 0 
vn -0.303935 0.952693 0 
vn -0.219435 0.975627 0 
vn -0.386104 0.922455 0 
vn -0.303935 0.952693 0 
vn -0.465314 0.885146 0 
vn -0.386104 0.922455 0 
vn -0.540956 0.841051 0 
vn -0.465314 0.885146 0 
vn -0.612451 0.790508 0 
vn -0.540956 0.841051 0 
vn -0.679252 0.733905 0 
vn -0.612451 0.790508 0 
vn -0.740845 0.671677 0 
vn -0.679252 0.733905 0 
vn -0.796758 0.604298 0 
vn -0.740845 0.671677 0 
vn -0.846564 0.532288 0 
vn -0.796758 0.604298 0 
vn -0.889879 0.456196 0 
vn -0.846564 0.532288 0 
vn -0.926373 0.376608 0 
vn -0.889879 0.456196 0 
vn -0.955765 0.294132 0 
vn -0.926373 0.376608 0 
vn -0.97783 0.209402 0 
vn -0.955765 0.294132 0 
vn -0.992399 0.123066 0 
vn -0.97783 0.209402 0 
vn -0.999359 0.0357864 0 
vn -0.992399 0.123066 0 
vn -0.998659 -0.0517672 0 
vn -0.999359 0.0357864 0 
vn -0.990303 -0.138924 0 
vn -0.998659 -0.0517672 0 
vn -0.974355 -0.225016 0 
vn -0.990303 -0.138924 0 
vn -0.950938 -0.309383 0 
vn -0.974355 -0.225016 0 
vn -0.92023 -0.391378 0 
vn -0.950938 -0.309383 0 
vn -0.882468 -0.470372 0 
vn -0.92023 -0.391378 0 
vn -0.837941 -0.545761 0 
vn -0.882468 -0.470372 0 
vn 0 0 1 
vn 0 0 -1 
vn -0.991828 -0.127579 0 
vn 0.837941 0.545761 0 
vn 0.878779 0.477228 0 
vn 0.914025 0.405658 0 
vn 0.943453 0.331506 0 
vn 0.966877 0.255244 0 
vn 0.984146 0.177358 0 
vn 0.995153 0.0983429 0 
vn 0.999825 0.0187019 0 
vn 0.998134 -0.0610582 0 
vn 0.990091 -0.14043 0 
vn 0.975746 -0.218907 0 
vn 0.95519 -0.295992 0 
vn 0.928556 -0.371192 0 
vn 0.896012 -0.44403 0 
vn 0.857765 -0.514043 0 
vn 0.814058 -0.580783 0 
vn 0.765171 -0.643827 0 
vn 0.711414 -0.702773 0 
vn 0.653129 -0.757247 0 
vn 0.590687 -0.806901 0 
vn 0.524485 -0.85142 0 
vn 0.454946 -0.890519 0 
vn 0.382511 -0.923951 0 
vn 0.307641 -0.951502 0 
vn 0.230814 -0.972998 0 
vn 0.152517 -0.988301 0 
vn 0.0732498 -0.997314 0 
vn -0.00648367 -0.999979 0 
vn -0.0861758 -0.99628 0 
vn -0.16532 -0.98624 0 
vn -0.243411 -0.969923 0 
vn -0.319953 -0.947433 0 
vn -0.394459 -0.918913 0 
vn -0.466455 -0.884545 0 
vn -0.535481 -0.844547 0 
vn -0.6011 -0.799174 0 
vn -0.662893 -0.748714 0 
vn -0.720467 -0.693489 0 
vn -0.773455 -0.633851 0 
vn -0.821521 -0.570178 0 
vn -0.864358 -0.502877 0 
vn -0.901694 -0.432375 0 
vn -0.933291 -0.359121 0 
vn -0.958948 -0.283581 0 
vn -0.978502 -0.206236 0 
vn -0.991828 -0.127579 0 
usemtl 0.917647_0.917647_0.917647_0.000000_0.000000
o mesh0
f 1//1 2//1 3//1 
f 3//1 4//1 1//1 
o mesh1
f 4//2 3//2 5//2 
f 5//2 6//2 4//2 
o mesh2
f 7//3 2//4 1//4 
f 8//5 7//3 9//6 
f 10//7 8//5 11//8 
f 12//9 10//7 13//10 
f 14//11 12//9 15//12 
f 16//13 14//11 17//14 
f 18//15 16//13 19//16 
f 20//17 18//15 21//18 
f 22//19 20//17 23//20 
f 24//21 22//19 25//22 
f 26//23 24//21 27//24 
f 28//25 26//23 29//26 
f 30//27 28//25 31//28 
f 32//29 30//27 33//30 
f 34//31 32//29 35//32 
f 36//33 34//31 37//34 
f 38//35 36//33 39//36 
f 40//37 38//35 41//38 
f 42//39 40//37 43//40 
f 44//41 42//39 45//42 
f 46//43 44//41 47//44 
f 48//45 46//43 49//46 
f 50//47 48//45 51//48 
f 52//49 50//47 53//50 
f 54//51 52//49 55//52 
f 56//53 54//51 57//54 
f 58//55 56//53 59//56 
f 60//57 58//55 61//58 
f 62//59 60//57 63//60 
f 64//61 62//59 65//62 
f 66//63 64//61 67//64 
f 68//65 66//63 69//66 
f 70//67 68//65 71//68 
f 72//69 70//67 73//70 
f 74//71 72//69 75//72 
f 76//73 74//71 77//74 
f 78//75 76//73 79//76 
f 80//77 78//75 81//78 
f 82//79 80//77 83//80 
f 84//81 82//79 85//82 
f 5//83 84//81 86//84 
f 86//84 6//83 5//83 
f 85//82 86//84 84//81 
f 83//80 85//82 82//79 
f 81//78 83//80 80//77 
f 79//76 81//78 78//75 
f 77//74 79//76 76//73 
f 75//72 77//74 74//71 
f 73//70 75//72 72//69 
f 71//68 73//70 70//67 
f 69//66 71//68 68//65 
f 67//64 69//66 66//63 
f 65//62 67//64 64//61 
f 63//60 65//62 62//59 
f 61//58 63//60 60//57 
f 59//56 61//58 58//55 
f 57//54 59//56 56//53 
f 55//52 57//54 54//51 
f 53//50 55//52 52//49 
f 51//48 53//50 50//47 
f 49//46 51//48 48//45 
f 47//44 49//46 46//43 
f 45//42 47//44 44//41 
f 43//40 45//42 42//39 
f 41//38 43//40 40//37 
f 39//36 41//38 38//35 
f 37//34 39//36 36//33 
f 35//32 37//34 34//31 
f 33//30 35//32 32//29 
f 31//28 33//30 30//27 
f 29//26 31//28 28//25 
f 27//24 29//26 26//23 
f 25//22 27//24 24//21 
f 23//20 25//22 22//19 
f 21//18 23//20 20//17 
f 19//16 21//18 18//15 
f 17//14 19//16 16//13 
f 15//12 17//14 14//11 
f 13//10 15//12 12//9 
f 11//8 13//10 10//7 
f 9//6 11//8 8//5 
f 1//4 9//6 7//3 
o mesh3
f 87//85 1//85 4//85 
f 88//85 9//85 1//85 
f 1//85 87//85 88//85 
f 89//85 11//85 9//85 
f 90//85 91//85 69//85 
f 92//85 71//85 69//85 
f 93//85 73//85 71//85 
f 94//85 75//85 73//85 
f 9//85 88//85 89//85 
f 95//85 13//85 11//85 
f 96//85 15//85 13//85 
f 97//85 17//85 15//85 
f 98//85 99//85 19//85 
f 100//85 101//85 27//85 
f 102//85 29//85 27//85 
f 103//85 53//85 51//85 
f 104//85 55//85 53//85 
f 105//85 106//85 65//85 
f 106//85 90//85 67//85 
f 69//85 91//85 92//85 
f 73//85 93//85 94//85 
f 11//85 89//85 95//85 
f 15//85 96//85 97//85 
f 17//85 97//85 98//85 
f 99//85 107//85 21//85 
f 107//85 108//85 23//85 
f 108//85 100//85 25//85 
f 27//85 101//85 102//85 
f 109//85 31//85 29//85 
f 53//85 103//85 104//85 
f 110//85 57//85 55//85 
f 111//85 59//85 57//85 
f 112//85 113//85 61//85 
f 113//85 105//85 63//85 
f 67//85 65//85 106//85 
f 71//85 92//85 93//85 
f 114//85 79//85 77//85 
f 115//85 116//85 83//85 
f 116//85 117//85 85//85 
f 13//85 95//85 96//85 
f 21//85 19//85 99//85 
f 25//85 23//85 108//85 
f 29//85 102//85 109//85 
f 118//85 35//85 33//85 
f 119//85 37//85 35//85 
f 55//85 104//85 110//85 
f 57//85 110//85 111//85 
f 63//85 61//85 113//85 
f 69//85 67//85 90//85 
f 77//85 120//85 114//85 
f 121//85 115//85 81//85 
f 85//85 83//85 116//85 
f 117//85 122//85 86//85 
f 19//85 17//85 98//85 
f 27//85 25//85 100//85 
f 123//85 33//85 31//85 
f 35//85 118//85 119//85 
f 124//85 125//85 39//85 
f 125//85 126//85 41//85 
f 126//85 127//85 43//85 
f 127//85 128//85 45//85 
f 128//85 129//85 47//85 
f 111//85 112//85 59//85 
f 65//85 63//85 105//85 
f 81//85 79//85 121//85 
f 86//85 85//85 117//85 
f 23//85 21//85 107//85 
f 33//85 123//85 118//85 
f 37//85 119//85 124//85 
f 43//85 41//85 126//85 
f 47//85 45//85 128//85 
f 129//85 130//85 49//85 
f 131//85 51//85 49//85 
f 61//85 59//85 112//85 
f 120//85 77//85 75//85 
f 83//85 81//85 115//85 
f 122//85 132//85 6//85 
f 132//85 133//85 4//85 
f 31//85 109//85 123//85 
f 41//85 39//85 125//85 
f 49//85 47//85 129//85 
f 51//85 131//85 103//85 
f 114//85 121//85 79//85 
f 4//85 6//85 132//85 
f 39//85 37//85 124//85 
f 49//85 130//85 131//85 
f 6//85 86//85 122//85 
f 45//85 43//85 127//85 
f 4//85 133//85 87//85 
f 75//85 94//85 120//85 
o mesh4
f 134//86 5//86 3//86 
f 135//86 84//86 5//86 
f 136//86 137//86 72//86 
f 137//86 138//86 70//86 
f 5//86 134//86 135//86 
f 139//86 82//86 84//86 
f 140//86 80//86 82//86 
f 141//86 78//86 80//86 
f 70//86 72//86 137//86 
f 138//86 142//86 68//86 
f 142//86 143//86 66//86 
f 144//86 64//86 66//86 
f 84//86 135//86 139//86 
f 80//86 140//86 141//86 
f 68//86 70//86 138//86 
f 66//86 143//86 144//86 
f 145//86 20//86 22//86 
f 146//86 18//86 20//86 
f 147//86 14//86 16//86 
f 82//86 139//86 140//86 
f 148//86 76//86 78//86 
f 149//86 136//86 74//86 
f 66//86 68//86 142//86 
f 150//86 62//86 64//86 
f 151//86 60//86 62//86 
f 152//86 58//86 60//86 
f 153//86 154//86 54//86 
f 155//86 156//86 50//86 
f 156//86 157//86 48//86 
f 158//86 22//86 24//86 
f 20//86 145//86 146//86 
f 159//86 16//86 18//86 
f 16//86 159//86 147//86 
f 78//86 141//86 148//86 
f 76//86 148//86 149//86 
f 64//86 144//86 150//86 
f 60//86 151//86 152//86 
f 160//86 56//86 58//86 
f 56//86 160//86 153//86 
f 154//86 155//86 52//86 
f 48//86 50//86 156//86 
f 161//86 162//86 26//86 
f 162//86 163//86 24//86 
f 22//86 158//86 145//86 
f 147//86 164//86 14//86 
f 74//86 76//86 149//86 
f 62//86 150//86 151//86 
f 54//86 56//86 153//86 
f 50//86 52//86 155//86 
f 157//86 165//86 46//86 
f 165//86 166//86 44//86 
f 167//86 42//86 44//86 
f 168//86 40//86 42//86 
f 169//86 34//86 36//86 
f 24//86 26//86 162//86 
f 18//86 146//86 159//86 
f 164//86 170//86 12//86 
f 170//86 171//86 10//86 
f 171//86 172//86 8//86 
f 172//86 173//86 7//86 
f 173//86 174//86 2//86 
f 174//86 175//86 3//86 
f 72//86 74//86 136//86 
f 52//86 54//86 154//86 
f 44//86 46//86 165//86 
f 42//86 167//86 168//86 
f 176//86 36//86 38//86 
f 36//86 176//86 169//86 
f 177//86 178//86 32//86 
f 178//86 179//86 30//86 
f 24//86 163//86 158//86 
f 10//86 12//86 170//86 
f 7//86 8//86 172//86 
f 3//86 2//86 174//86 
f 58//86 152//86 160//86 
f 44//86 166//86 167//86 
f 180//86 38//86 40//86 
f 169//86 177//86 34//86 
f 30//86 32//86 178//86 
f 179//86 161//86 28//86 
f 12//86 14//86 164//86 
f 2//86 7//86 173//86 
f 46//86 48//86 157//86 
f 38//86 180//86 176//86 
f 28//86 30//86 179//86 
f 8//86 10//86 171//86 
f 40//86 168//86 180//86 
f 26//86 28//86 161//86 
f 32//86 34//86 177//86 
f 3//86 175//86 134//86 
o mesh5
f 133//87 175//87 174//87 
f 174//87 87//87 133//87 
o mesh6
f 132//88 134//88 175//88 
f 175//88 133//88 132//88 
o mesh7
f 134//88 132//88 122//89 
f 135//89 122//89 117//90 
f 139//90 117//90 116//91 
f 140//91 116//91 115//92 
f 141//92 115//92 121//93 
f 148//93 121//93 114//94 
f 149//94 114//94 120//95 
f 136//95 120//95 94//96 
f 137//96 94//96 93//97 
f 138//97 93//97 92//98 
f 142//98 92//98 91//99 
f 143//99 91//99 90//100 
f 144//100 90//100 106//101 
f 150//101 106//101 105//102 
f 151//102 105//102 113//103 
f 152//103 113//103 112//104 
f 160//104 112//104 111//105 
f 153//105 111//105 110//106 
f 154//106 110//106 104//107 
f 155//107 104//107 103//108 
f 156//108 103//108 131//109 
f 157//109 131//109 130//110 
f 165//110 130//110 129//111 
f 166//111 129//111 128//112 
f 167//112 128//112 127//113 
f 168//113 127//113 126//114 
f 180//114 126//114 125//115 
f 176//115 125//115 124//116 
f 169//116 124//116 119//117 
f 177//117 119//117 118//118 
f 178//118 118//118 123//119 
f 179//119 123//119 109//120 
f 161//120 109//120 102//121 
f 162//121 102//121 101//122 
f 163//122 101//122 100//123 
f 158//123 100//123 108//124 
f 145//124 108//124 107//125 
f 146//125 107//125 99//126 
f 159//126 99//126 98//127 
f 147//127 98//127 97//128 
f 164//128 97//128 96//129 
f 170//129 96//129 95//130 
f 171//130 95//130 89//131 
f 172//131 89//131 88//132 
f 173//132 88//132 87//133 
f 87//133 174//133 173//132 
f 88//132 173//132 172//131 
f 89//131 172//131 171//130 
f 95//130 171//130 170//129 
f 96//129 170//129 164//128 
f 97//128 164//128 147//127 
f 98//127 147//127 159//126 
f 99//126 159//126 146//125 
f 107//125 146//125 145//124 
f 108//124 145//124 158//123 
f 100//123 158//123 163//122 
f 101//122 163//122 162//121 
f 102//121 162//121 161//120 
f 109//120 161//120 179//119 
f 123//119 179//119 178//118 
f 118//118 178//118 177//117 
f 119//117 177//117 169//116 
f 124//116 169//116 176//115 
f 125//115 176//115 180//114 
f 126//114 180//114 168//113 
f 127//113 168//113 167//112 
f 128//112 167//112 166//111 
f 129//111 166//111 165//110 
f 130//110 165//110 157//109 
f 131//109 157//109 156//108 
f 103//108 156//108 155//107 
f 104//107 155//107 154//106 
f 110//106 154//106 153//105 
f 111//105 153//105 160//104 
f 112//104 160//104 152//103 
f 113//103 152//103 151//102 
f 105//102 151//102 150//101 
f 106//101 150//101 144//100 
f 90//100 144//100 143//99 
f 91//99 143//99 142//98 
f 92//98 142//98 138//97 
f 93//97 138//97 137//96 
f 94//96 137//96 136//95 
f 120//95 136//95 149//94 
f 114//94 149//94 148//93 
f 121//93 148//93 141//92 
f 115//92 141//92 140//91 
f 116//91 140//91 139//90 
f 117//90 139//90 135//89 
f 122//89 135//89 134//88 
