# File units = meters
mtllib V2_small_inner_wall.mtl
g Small Inner Wall
v -3.58761 4.53312 0.125 
v -3.58268 4.7759 0.125 
v -3.58268 4.7759 0 
v -3.58761 4.53312 -1.38778e-17 
v -3.58284 4.78068 0 
v -3.5835 4.78542 0 
v -3.58284 4.78068 0.125 
v -3.58466 4.79005 0 
v -3.5835 4.78542 0.125 
v -3.58631 4.79454 0 
v -3.58466 4.79005 0.125 
v -3.58842 4.79883 0 
v -3.58631 4.79454 0.125 
v -3.59098 4.80287 0 
v -3.58842 4.79883 0.125 
v -3.59395 4.80662 0 
v -3.59098 4.80287 0.125 
v -3.59731 4.81003 0 
v -3.59395 4.80662 0.125 
v -3.601 4.81306 0 
v -3.59731 4.81003 0.125 
v -3.605 4.81569 0 
v -3.601 4.81306 0.125 
v -3.60925 4.81787 0 
v -3.605 4.81569 0.125 
v -3.61371 4.8196 0 
v -3.60925 4.81787 0.125 
v -3.61833 4.82084 0 
v -3.61371 4.8196 0.125 
v -3.62305 4.82158 0 
v -3.61833 4.82084 0.125 
v -3.62783 4.82182 0 
v -3.62305 4.82158 0.125 
v -3.6326 4.82155 0 
v -3.62783 4.82182 0.125 
v -3.63732 4.82077 0 
v -3.6326 4.82155 0.125 
v -3.64193 4.8195 0 
v -3.63732 4.82077 0.125 
v -3.64638 4.81774 0 
v -3.64193 4.8195 0.125 
v -3.65061 4.81553 0 
v -3.64638 4.81774 0.125 
v -3.65459 4.81288 0 
v -3.65061 4.81553 0.125 
v -3.65827 4.80982 0 
v -3.65459 4.81288 0.125 
v -3.66159 4.80638 0 
v -3.65827 4.80982 0.125 
v -3.66454 4.80262 0 
v -3.66159 4.80638 0.125 
v -3.66707 4.79856 0 
v -3.66454 4.80262 0.125 
v -3.66915 4.79426 0 
v -3.66707 4.79856 0.125 
v -3.67077 4.78976 0 
v -3.66915 4.79426 0.125 
v -3.6719 4.78511 0 
v -3.67077 4.78976 0.125 
v -3.67253 4.78037 0 
v -3.6719 4.78511 0.125 
v -3.67265 4.77559 0 
v -3.67253 4.78037 0.125 
v -3.67227 4.77082 0 
v -3.67265 4.77559 0.125 
v -3.67138 4.76613 0 
v -3.67227 4.77082 0.125 
v -3.67 4.76155 -1.38778e-17 
v -3.67138 4.76613 0.125 
v -3.67 4.76155 0.125 
v -3.68421 4.82609 0.125 
v -3.68912 4.81982 0.125 
v -3.69334 4.81305 0.125 
v -3.69681 4.80588 0.125 
v -3.6995 4.79838 0.125 
v -3.70139 4.79064 0.125 
v -3.55874 4.80636 0.125 
v -3.56226 4.81351 0.125 
v -3.66591 4.84134 0.125 
v -3.67254 4.83692 0.125 
v -3.70244 4.78274 0.125 
v -3.56652 4.82024 0.125 
v -3.64375 4.85007 0.125 
v -3.65143 4.84795 0.125 
v -3.67866 4.83182 0.125 
v -3.70264 4.77477 0.125 
v -3.702 4.76683 0.125 
v -3.55599 4.79888 0.125 
v -3.57148 4.82649 0.125 
v -3.57706 4.83217 0.125 
v -3.65885 4.84503 0.125 
v -3.70052 4.759 0.125 
v -3.69822 4.75137 0.125 
v -3.56091 4.37065 0.125 
v -3.58322 4.83722 0.125 
v -3.58988 4.8416 0.125 
v -3.59697 4.84524 0.125 
v -3.6044 4.84812 0.125 
v -3.55405 4.79115 0.125 
v -3.62793 4.85182 0.125 
v -3.63589 4.85136 0.125 
v -3.6121 4.85018 0.125 
v -3.61997 4.85142 0.125 
v -3.55295 4.78326 0.125 
v -3.55269 4.77529 0.125 
v -3.59697 4.84524 0 
v -3.58988 4.8416 0 
v -3.68421 4.82609 0 
v -3.67866 4.83182 0 
v -3.62793 4.85182 0 
v -3.61997 4.85142 0 
v -3.58322 4.83722 0 
v -3.6995 4.79838 0 
v -3.69681 4.80588 0 
v -3.69334 4.81305 0 
v -3.68912 4.81982 0 
v -3.67254 4.83692 0 
v -3.65143 4.84795 0 
v -3.64375 4.85007 0 
v -3.63589 4.85136 0 
v -3.57706 4.83217 0 
v -3.57148 4.82649 0 
v -3.56652 4.82024 0 
v -3.56226 4.81351 0 
v -3.55874 4.80636 0 
v -3.55599 4.79888 0 
v -3.55405 4.79115 0 
v -3.70139 4.79064 0 
v -3.6121 4.85018 0 
v -3.6044 4.84812 0 
v -3.55295 4.78326 0 
v -3.55269 4.77529 0 
v -3.56091 4.37065 0 
v -3.70244 4.78274 0 
v -3.66591 4.84134 0 
v -3.65885 4.84503 0 
v -3.69822 4.75137 0 
v -3.70052 4.759 0 
v -3.702 4.76683 0 
v -3.70264 4.77477 0 
vn -0.999794 0.0203091 0 
vn -0.996305 -0.0858884 0 
vn -0.981567 -0.191116 0 
vn -0.955748 -0.294186 0 
vn -0.919138 -0.393935 0 
vn -0.872151 -0.489236 0 
vn -0.815318 -0.579014 0 
vn -0.749279 -0.662254 0 
vn -0.674781 -0.738018 0 
vn -0.592665 -0.805449 0 
vn -0.503857 -0.863787 0 
vn -0.409361 -0.912373 0 
vn -0.310243 -0.950657 0 
vn -0.207622 -0.978209 0 
vn -0.102658 -0.994717 0 
vn 0.00346599 -0.999994 0 
vn 0.109551 -0.993981 0 
vn 0.214398 -0.976746 0 
vn 0.316825 -0.948484 0 
vn 0.415676 -0.909513 0 
vn 0.509833 -0.860274 0 
vn 0.598234 -0.801322 0 
vn 0.679881 -0.733323 0 
vn 0.753852 -0.657044 0 
vn 0.819312 -0.573348 0 
vn 0.875522 -0.483179 0 
vn 0.921847 -0.387554 0 
vn 0.957764 -0.287554 0 
vn 0.982869 -0.184307 0 
vn 0.996876 -0.07898 0 
vn 0.999629 0.0272391 0 
vn 0.991096 0.133151 0 
vn 0.971373 0.237559 0 
vn 0.940684 0.339285 0 
vn 0 0 1 
vn 0 0 -1 
vn 0.999794 -0.0203091 0 
vn -0.940684 -0.339285 0 
vn -0.971373 -0.237559 0 
vn -0.991096 -0.133151 0 
vn -0.999629 -0.0272391 0 
vn -0.996876 0.07898 0 
vn -0.982869 0.184307 0 
vn -0.957764 0.287554 0 
vn -0.921847 0.387554 0 
vn -0.875522 0.483179 0 
vn -0.819312 0.573348 0 
vn -0.753852 0.657044 0 
vn -0.679881 0.733323 0 
vn -0.598234 0.801322 0 
vn -0.509833 0.860274 0 
vn -0.415676 0.909513 0 
vn -0.316825 0.948484 0 
vn -0.214398 0.976746 0 
vn -0.109551 0.993981 0 
vn -0.00346599 0.999994 0 
vn 0.102658 0.994717 0 
vn 0.207622 0.978209 0 
vn 0.310243 0.950657 0 
vn 0.409361 0.912373 0 
vn 0.503857 0.863787 0 
vn 0.592665 0.805449 0 
vn 0.674781 0.738018 0 
vn 0.749279 0.662254 0 
vn 0.815318 0.579014 0 
vn 0.872151 0.489236 0 
vn 0.919138 0.393935 0 
vn 0.955748 0.294186 0 
vn 0.981567 0.191116 0 
vn 0.996305 0.0858884 0 
vn 0.999794 -0.0203091 0 
vn -0.940684 -0.339285 0 
usemtl 0.768627_0.886275_0.952941_0.000000_0.000000
o mesh0
f 1//1 2//1 3//1 
f 3//1 4//1 1//1 
o mesh1
f 5//2 3//1 2//1 
f 6//3 5//2 7//2 
f 8//4 6//3 9//3 
f 10//5 8//4 11//4 
f 12//6 10//5 13//5 
f 14//7 12//6 15//6 
f 16//8 14//7 17//7 
f 18//9 16//8 19//8 
f 20//10 18//9 21//9 
f 22//11 20//10 23//10 
f 24//12 22//11 25//11 
f 26//13 24//12 27//12 
f 28//14 26//13 29//13 
f 30//15 28//14 31//14 
f 32//16 30//15 33//15 
f 34//17 32//16 35//16 
f 36//18 34//17 37//17 
f 38//19 36//18 39//18 
f 40//20 38//19 41//19 
f 42//21 40//20 43//20 
f 44//22 42//21 45//21 
f 46//23 44//22 47//22 
f 48//24 46//23 49//23 
f 50//25 48//24 51//24 
f 52//26 50//25 53//25 
f 54//27 52//26 55//26 
f 56//28 54//27 57//27 
f 58//29 56//28 59//28 
f 60//30 58//29 61//29 
f 62//31 60//30 63//30 
f 64//32 62//31 65//31 
f 66//33 64//32 67//32 
f 68//34 66//33 69//33 
f 69//33 70//34 68//34 
f 67//32 69//33 66//33 
f 65//31 67//32 64//32 
f 63//30 65//31 62//31 
f 61//29 63//30 60//30 
f 59//28 61//29 58//29 
f 57//27 59//28 56//28 
f 55//26 57//27 54//27 
f 53//25 55//26 52//26 
f 51//24 53//25 50//25 
f 49//23 51//24 48//24 
f 47//22 49//23 46//23 
f 45//21 47//22 44//22 
f 43//20 45//21 42//21 
f 41//19 43//20 40//20 
f 39//18 41//19 38//19 
f 37//17 39//18 36//18 
f 35//16 37//17 34//17 
f 33//15 35//16 32//16 
f 31//14 33//15 30//15 
f 29//13 31//14 28//14 
f 27//12 29//13 26//13 
f 25//11 27//12 24//12 
f 23//10 25//11 22//11 
f 21//9 23//10 20//10 
f 19//8 21//9 18//9 
f 17//7 19//8 16//8 
f 15//6 17//7 14//7 
f 13//5 15//6 12//6 
f 11//4 13//5 10//5 
f 9//3 11//4 8//4 
f 7//2 9//3 6//3 
f 2//1 7//2 5//2 
o mesh2
f 1//34 4//34 68//34 
f 68//34 70//34 1//34 
o mesh3
f 71//35 51//35 49//35 
f 71//35 72//35 53//35 
f 72//35 73//35 55//35 
f 73//35 74//35 57//35 
f 74//35 75//35 59//35 
f 75//35 76//35 61//35 
f 77//35 13//35 11//35 
f 78//35 15//35 13//35 
f 79//35 45//35 43//35 
f 79//35 80//35 47//35 
f 53//35 51//35 71//35 
f 57//35 55//35 73//35 
f 61//35 59//35 75//35 
f 76//35 81//35 63//35 
f 13//35 77//35 78//35 
f 82//35 17//35 15//35 
f 83//35 39//35 37//35 
f 83//35 84//35 41//35 
f 47//35 45//35 79//35 
f 80//35 85//35 49//35 
f 55//35 53//35 72//35 
f 63//35 61//35 76//35 
f 81//35 86//35 65//35 
f 86//35 87//35 67//35 
f 88//35 11//35 9//35 
f 15//35 78//35 82//35 
f 89//35 19//35 17//35 
f 90//35 21//35 19//35 
f 41//35 39//35 83//35 
f 84//35 91//35 43//35 
f 49//35 47//35 80//35 
f 59//35 57//35 74//35 
f 67//35 65//35 86//35 
f 87//35 92//35 69//35 
f 92//35 93//35 70//35 
f 93//35 94//35 1//35 
f 11//35 88//35 77//35 
f 19//35 89//35 90//35 
f 95//35 23//35 21//35 
f 96//35 25//35 23//35 
f 97//35 27//35 25//35 
f 97//35 98//35 29//35 
f 43//35 41//35 84//35 
f 49//35 85//35 71//35 
f 69//35 67//35 87//35 
f 1//35 70//35 93//35 
f 99//35 9//35 7//35 
f 17//35 82//35 89//35 
f 23//35 95//35 96//35 
f 29//35 27//35 97//35 
f 100//35 35//35 33//35 
f 100//35 101//35 37//35 
f 43//35 91//35 79//35 
f 70//35 69//35 92//35 
f 9//35 99//35 88//35 
f 25//35 96//35 97//35 
f 102//35 31//35 29//35 
f 102//35 103//35 33//35 
f 37//35 35//35 100//35 
f 65//35 63//35 81//35 
f 104//35 7//35 2//35 
f 21//35 90//35 95//35 
f 33//35 31//35 102//35 
f 37//35 101//35 83//35 
f 7//35 104//35 99//35 
f 33//35 103//35 100//35 
f 29//35 98//35 102//35 
f 105//35 2//35 1//35 
f 1//35 94//35 105//35 
f 2//35 105//35 104//35 
o mesh4
f 106//36 24//36 26//36 
f 106//36 107//36 22//36 
f 108//36 48//36 50//36 
f 108//36 109//36 46//36 
f 110//36 32//36 34//36 
f 110//36 111//36 30//36 
f 22//36 24//36 106//36 
f 107//36 112//36 20//36 
f 113//36 56//36 58//36 
f 114//36 54//36 56//36 
f 115//36 52//36 54//36 
f 116//36 50//36 52//36 
f 46//36 48//36 108//36 
f 109//36 117//36 44//36 
f 118//36 38//36 40//36 
f 118//36 119//36 36//36 
f 120//36 34//36 36//36 
f 30//36 32//36 110//36 
f 20//36 22//36 107//36 
f 112//36 121//36 18//36 
f 121//36 122//36 16//36 
f 122//36 123//36 14//36 
f 123//36 124//36 12//36 
f 124//36 125//36 10//36 
f 125//36 126//36 8//36 
f 126//36 127//36 6//36 
f 128//36 58//36 60//36 
f 56//36 113//36 114//36 
f 52//36 115//36 116//36 
f 44//36 46//36 109//36 
f 36//36 38//36 118//36 
f 34//36 120//36 110//36 
f 129//36 28//36 30//36 
f 129//36 130//36 26//36 
f 18//36 20//36 112//36 
f 14//36 16//36 122//36 
f 10//36 12//36 124//36 
f 6//36 8//36 126//36 
f 58//36 128//36 113//36 
f 50//36 116//36 108//36 
f 36//36 119//36 120//36 
f 26//36 28//36 129//36 
f 16//36 18//36 121//36 
f 8//36 10//36 125//36 
f 131//36 132//36 3//36 
f 132//36 133//36 4//36 
f 134//36 60//36 62//36 
f 54//36 114//36 115//36 
f 135//36 42//36 44//36 
f 135//36 136//36 40//36 
f 30//36 111//36 129//36 
f 12//36 14//36 123//36 
f 127//36 131//36 5//36 
f 4//36 3//36 132//36 
f 60//36 134//36 128//36 
f 40//36 42//36 135//36 
f 26//36 130//36 106//36 
f 3//36 5//36 131//36 
f 137//36 68//36 4//36 
f 138//36 66//36 68//36 
f 139//36 64//36 66//36 
f 140//36 62//36 64//36 
f 44//36 117//36 135//36 
f 5//36 6//36 127//36 
f 68//36 137//36 138//36 
f 64//36 139//36 140//36 
f 40//36 136//36 118//36 
f 66//36 138//36 139//36 
f 4//36 133//36 137//36 
f 62//36 140//36 134//36 
o mesh5
f 94//37 133//37 132//37 
f 132//37 105//37 94//37 
o mesh6
f 137//38 93//38 92//39 
f 138//39 92//39 87//40 
f 139//40 87//40 86//41 
f 140//41 86//41 81//42 
f 134//42 81//42 76//43 
f 128//43 76//43 75//44 
f 113//44 75//44 74//45 
f 114//45 74//45 73//46 
f 115//46 73//46 72//47 
f 116//47 72//47 71//48 
f 108//48 71//48 85//49 
f 109//49 85//49 80//50 
f 117//50 80//50 79//51 
f 135//51 79//51 91//52 
f 136//52 91//52 84//53 
f 118//53 84//53 83//54 
f 119//54 83//54 101//55 
f 120//55 101//55 100//56 
f 110//56 100//56 103//57 
f 111//57 103//57 102//58 
f 129//58 102//58 98//59 
f 130//59 98//59 97//60 
f 106//60 97//60 96//61 
f 107//61 96//61 95//62 
f 112//62 95//62 90//63 
f 121//63 90//63 89//64 
f 122//64 89//64 82//65 
f 123//65 82//65 78//66 
f 124//66 78//66 77//67 
f 125//67 77//67 88//68 
f 126//68 88//68 99//69 
f 127//69 99//69 104//70 
f 131//70 104//70 105//71 
f 105//71 132//71 131//70 
f 104//70 131//70 127//69 
f 99//69 127//69 126//68 
f 88//68 126//68 125//67 
f 77//67 125//67 124//66 
f 78//66 124//66 123//65 
f 82//65 123//65 122//64 
f 89//64 122//64 121//63 
f 90//63 121//63 112//62 
f 95//62 112//62 107//61 
f 96//61 107//61 106//60 
f 97//60 106//60 130//59 
f 98//59 130//59 129//58 
f 102//58 129//58 111//57 
f 103//57 111//57 110//56 
f 100//56 110//56 120//55 
f 101//55 120//55 119//54 
f 83//54 119//54 118//53 
f 84//53 118//53 136//52 
f 91//52 136//52 135//51 
f 79//51 135//51 117//50 
f 80//50 117//50 109//49 
f 85//49 109//49 108//48 
f 71//48 108//48 116//47 
f 72//47 116//47 115//46 
f 73//46 115//46 114//45 
f 74//45 114//45 113//44 
f 75//44 113//44 128//43 
f 76//43 128//43 134//42 
f 81//42 134//42 140//41 
f 86//41 140//41 139//40 
f 87//40 139//40 138//39 
f 92//39 138//39 137//38 
o mesh7
f 93//72 137//72 133//72 
f 133//72 94//72 93//72 
